<svg xmlns="http://www.w3.org/2000/svg" viewBox="0 0 420 300" role="img" aria-labelledby="title">
  <title id="title">A dog and a cat</title>
  <rect width="420" height="300" rx="32" fill="#f2f7ee"/>
  <circle cx="145" cy="145" r="82" fill="#d39b5f"/>
  <path d="M80 90 54 37l72 30M205 90l26-53-72 30" fill="#a66a36"/>
  <circle cx="120" cy="135" r="9" fill="#34302d"/><circle cx="170" cy="135" r="9" fill="#34302d"/>
  <path d="M133 163q12 14 24 0M145 154v15" fill="none" stroke="#34302d" stroke-width="7" stroke-linecap="round"/>
  <circle cx="294" cy="157" r="70" fill="#8bb6bf"/>
  <path d="m240 111 10-74 47 59m52 15-10-74-47 59" fill="#68919a"/>
  <circle cx="273" cy="151" r="8" fill="#34302d"/><circle cx="316" cy="151" r="8" fill="#34302d"/>
  <path d="m294 166-8 8h16zm0 8v12m0-5-16 8m16-8 16 8" fill="none" stroke="#34302d" stroke-width="5" stroke-linecap="round"/>
  <path d="M72 247q72 27 144 0m26 0q57 23 114 0" fill="none" stroke="#6db33f" stroke-width="12" stroke-linecap="round"/>
</svg>

